<?xml version="1.0" encoding="UTF-8"?>
<svg id="Layer_2" data-name="Layer 2" xmlns="http://www.w3.org/2000/svg" xmlns:xlink="http://www.w3.org/1999/xlink" viewBox="0 0 293 293">
  <defs>
    <style>
      .cls-1 {
        fill: url(#linear-gradient-2);
      }

      .cls-2 {
        fill: url(#linear-gradient);
      }
    </style>
    <linearGradient id="linear-gradient" x1="4.67" y1="30.53" x2="265.84" y2="244.07" gradientUnits="userSpaceOnUse">
      <stop offset="0" stop-color="#8156ff"/>
      <stop offset="1" stop-color="#074cff"/>
    </linearGradient>
    <linearGradient id="linear-gradient-2" x1="212.8" y1="212.63" x2="71.21" y2="93.05" gradientUnits="userSpaceOnUse">
      <stop offset="0" stop-color="#ff9"/>
      <stop offset="1" stop-color="#f79b37"/>
    </linearGradient>
  </defs>
  <g id="Layer_2-2" data-name="Layer 2">
    <circle class="cls-2" cx="146.5" cy="146.5" r="146.5"/>
  </g>
  <g id="Layer_1-2" data-name="Layer 1">
    <path class="cls-1" d="M168.53,73.65l4.15,12.78c3.69,11.35,14.26,19.03,26.19,19.03h13.44c22.44,0,31.77,28.71,13.61,41.9l-10.87,7.9c-9.65,7.01-13.69,19.44-10,30.79l4.15,12.78c6.93,21.34-17.49,39.09-35.64,25.9l-10.87-7.9c-9.65-7.01-22.72-7.01-32.37,0l-10.87,7.9c-18.15,13.19-42.58-4.56-35.64-25.9l4.15-12.78c3.69-11.35-.35-23.78-10-30.79l-10.87-7.9c-18.15-13.19-8.82-41.9,13.61-41.9h13.44c11.93,0,22.5-7.68,26.19-19.03l4.15-12.78c6.93-21.34,37.13-21.34,44.06,0Z"/>
  </g>
</svg>